#!OML:ASF F:\twosubjects\two\Thursday\Session 1\Rory.ASF
:FULLY-SPECIFIED
:DEGREES
575
root 11.1512 18.9105 10.0183 -156.896 -81.7512 159.425
lowerback -7.24395 -2.27055 -4.60836
upperback -0.291631 -2.61885 -1.70802
thorax 3.8862 -1.38477 0.535974
lowerneck -2.4078 -9.84424 -12.2618
upperneck 16.6225 -15.9758 15.2929
head 7.70603 -7.73683 5.60005
rclavicle 3.42158e-014 6.36111e-015
rhumerus 1.13886 21.9315 -63.0022
rradius 136.878
rwrist 11.2582
rhand -44.6188 28.2942
rfingers 7.12502
rthumb -17.4168 -0.945476
lclavicle 3.42158e-014 6.36111e-015
lhumerus -41.6083 -9.31163 83.8598
lradius 118.724
lwrist -17.755
lhand -18.2164 45.9584
lfingers 7.12502
lthumb 8.06147 75.7846
rfemur 0.574871 10.4263 12.9191
rtibia 7.60256
rfoot -6.99838 -8.79449
rtoes -15.4564
lfemur 2.21305 -5.56401 -19.0359
ltibia 7.3225
lfoot -11.6709 12.5127
ltoes 15.4198
576
root 11.1553 18.9079 10.0179 -156.158 -81.6949 158.651
lowerback -7.21706 -2.25093 -4.73239
upperback -0.267279 -2.58279 -1.73871
thorax 3.899 -1.36965 0.5776
lowerneck -2.41977 -9.91493 -12.239
upperneck 16.2205 -15.9756 15.2451
head 7.57199 -7.73681 5.57813
rclavicle 8.88319e-015 -1.35174e-014
rhumerus 1.56696 21.6673 -62.805
rradius 136.86
rwrist 11.5293
rhand -36.4315 29.9883
rfingers 7.12502
rthumb -9.52615 0.223641
lclavicle 8.88319e-015 -1.35174e-014
lhumerus -41.5562 -9.18322 83.8695
lradius 118.69
lwrist -17.896
lhand -18.2781 45.898
lfingers 7.12502
lthumb 8.00192 75.7265
rfemur 0.542229 10.4488 12.8072
rtibia 7.71158
rfoot -7.09535 -8.93412
rtoes -16.1191
lfemur 2.29603 -5.55758 -19.178
ltibia 7.17597
lfoot -11.5583 12.6349
ltoes 14.6662
577
root 11.1569 18.9057 10.0173 -155.184 -81.6399 157.621
lowerback -7.20229 -2.24317 -4.92764
upperback -0.259934 -2.55692 -1.78385
thorax 3.90379 -1.36079 0.642666
lowerneck -2.28477 -9.9468 -12.4816
upperneck 15.7705 -15.962 15.4366
head 7.43722 -7.74174 5.68832
rclavicle -5.09883e-014 1.03368e-014
rhumerus 1.92425 21.455 -62.5923
rradius 136.716
rwrist 11.8473
rhand -34.1717 30.5552
rfingers 7.12502
rthumb -7.34526 0.702746
lclavicle -5.09883e-014 1.03368e-014
lhumerus -41.6929 -9.05592 83.9061
lradius 118.706
lwrist -18.0014
lhand -18.4416 46.2057
lfingers 7.12502
lthumb 7.84417 76.0402
rfemur 0.482935 10.4545 12.6326
rtibia 7.93451
rfoot -7.35055 -8.79666
rtoes -16.0758
lfemur 2.45667 -5.57017 -19.3677
ltibia 6.92621
lfoot -11.3894 12.7797
ltoes 14.1749
578
root 11.1584 18.9068 10.018 -154.661 -81.6094 157.122
lowerback -7.24243 -2.22517 -4.98521
upperback -0.284715 -2.52637 -1.83938
thorax 3.89895 -1.34661 0.619613
lowerneck -2.29806 -9.95907 -12.764
upperneck 15.5712 -15.9586 15.6588
head 7.41784 -7.74269 5.80611
rclavicle -1.81018e-014 7.95139e-016
rhumerus 2.2159 21.1985 -62.2685
rradius 136.619
rwrist 11.892
rhand -35.7878 28.5131
rfingers 7.12502
rthumb -8.90505 -1.27895
lclavicle -1.81018e-014 7.95139e-016
lhumerus -41.8424 -8.87738 83.9047
lradius 118.677
lwrist -18.0381
lhand -18.5026 46.5263
lfingers 7.12502
lthumb 7.78523 76.363
rfemur 0.300264 10.4583 12.5197
rtibia 8.22531
rfoot -7.47035 -8.68774
rtoes -15.9834
lfemur 2.57441 -5.5743 -19.4653
ltibia 6.62135
lfoot -11.2229 12.7326
ltoes 14.1425
579
root 11.1645 18.9087 10.0161 -154.033 -81.5382 156.656
lowerback -7.35951 -2.20196 -5.10051
upperback -0.344969 -2.48197 -1.84968
thorax 3.90413 -1.32662 0.674949
lowerneck -2.36146 -9.97689 -12.9311
upperneck 15.341 -15.9424 15.8036
head 7.37943 -7.73227 5.87864
rclavicle 1.60146e-014 5.28767e-014
rhumerus 2.47725 20.8354 -62.0877
rradius 136.646
rwrist 11.8379
rhand -39.1156 19.9346
rfingers 7.12502
rthumb -12.1151 -9.69466
lclavicle 1.60146e-014 5.28767e-014
lhumerus -41.8996 -8.64796 83.9047
lradius 118.624
lwrist -17.9704
lhand -18.6498 46.3112
lfingers 7.12502
lthumb 7.6432 76.1531
rfemur 0.0727083 10.4827 12.4165
rtibia 8.29038
rfoot -7.47133 -8.80027
rtoes -16.1235
lfemur 2.39193 -5.53833 -19.526
ltibia 6.56449
lfoot -11.1228 12.682
ltoes 14.0167
580
root 11.172 18.9093 10.0114 -151.933 -81.4258 154.683
lowerback -7.44824 -2.20099 -5.45721
upperback -0.403279 -2.44846 -1.93185
thorax 3.9029 -1.31667 0.789854
lowerneck -2.38646 -10.0645 -13.0174
upperneck 15.0596 -16.0277 15.9406
head 7.32674 -7.7699 5.9242
rclavicle -6.64686e-015 -2.5842e-014
rhumerus 2.75259 20.3867 -62.084
rradius 136.655
rwrist 12.0924
rhand -35.6246 27.6262
rfingers 7.12502
rthumb -8.74756 -2.17255
lclavicle -6.64686e-015 -2.5842e-014
lhumerus -41.9209 -8.50313 83.8631
lradius 118.742
lwrist -17.9698
lhand -18.8122 45.8279
lfingers 7.12502
lthumb 7.48643 75.6754
rfemur 0.0194054 10.4432 12.0911
rtibia 8.08214
rfoot -7.37643 -8.8232
rtoes -15.1498
lfemur 2.05263 -5.56827 -19.8088
ltibia 6.81337
lfoot -11.1 12.7129
ltoes 14.016
581
root 11.1724 18.9119 10.0124 -152.635 -81.5345 155.386
lowerback -7.48121 -2.17784 -5.15169
upperback -0.381898 -2.43776 -1.98731
thorax 3.92768 -1.30619 0.56192
lowerneck -2.46206 -10.156 -13.0712
upperneck 14.8847 -16.1321 16.0545
head 7.31592 -7.81317 5.95181
rclavicle 2.04748e-014 -7.95139e-016
rhumerus 3.09988 20.004 -62.0177
rradius 136.614
rwrist 12.4088
rhand -34.5695 30.4878
rfingers 7.12502
rthumb -7.7293 0.64908
lclavicle 2.04748e-014 -7.95139e-016
lhumerus -41.8393 -8.34055 83.7436
lradius 118.82
lwrist -18.2068
lhand -18.4683 45.538
lfingers 7.12502
lthumb 7.81836 75.3734
rfemur 0.113003 10.4095 12.2519
rtibia 7.90201
rfoot -7.14416 -8.74964
rtoes -15.006
lfemur 1.96666 -5.61536 -19.6428
ltibia 7.04383
lfoot -11.3351 12.5301
ltoes 15.485
582
root 11.1681 18.9137 10.0198 -155.16 -81.768 157.885
lowerback -7.50938 -2.1552 -4.5007
upperback -0.326287 -2.45571 -1.95137
thorax 3.97611 -1.30332 0.232472
lowerneck -2.60187 -10.2285 -13.3099
upperneck 14.7679 -16.1984 16.1922
head 7.34727 -7.84076 6.0179
rclavicle 2.26118e-014 3.97569e-016
rhumerus 3.53978 19.5898 -61.9664
rradius 136.47
rwrist 12.3308
rhand -34.6504 30.8608
rfingers 7.12502
rthumb -7.80739 1.02491
lclavicle 2.26118e-014 3.97569e-016
lhumerus -41.7105 -8.11155 83.6576
lradius 118.822
lwrist -18.3059
lhand -17.9432 45.4986
lfingers 7.12502
lthumb 8.32515 75.3146
rfemur 0.269069 10.3794 12.6923
rtibia 7.72585
rfoot -7.06336 -8.73387
rtoes -15.8649
lfemur 1.96721 -5.66547 -19.2084
ltibia 7.27054
lfoot -11.7623 12.3098
ltoes 16.4256
583
root 11.1717 18.9092 10.0233 -154.242 -82.0195 156.839
lowerback -7.33447 -2.23796 -4.51477
upperback -0.29273 -2.5734 -1.95165
thorax 3.91822 -1.36112 0.233022
lowerneck -2.55817 -10.2513 -13.7146
upperneck 14.4294 -16.175 16.4178
head 7.28213 -7.84042 6.16135
rclavicle -2.57178e-015 1.07344e-014
rhumerus 3.94013 19.2296 -61.8362
rradius 136.287
rwrist 12.1364
rhand -34.5444 30.9356
rfingers 7.12502
rthumb -7.70508 1.09602
lclavicle -2.57178e-015 1.07344e-014
lhumerus -41.6379 -7.97967 83.6494
lradius 118.84
lwrist -18.1341
lhand -17.7919 45.6884
lfingers 7.12502
lthumb 8.47121 75.4985
rfemur 0.648512 10.1193 12.6639
rtibia 7.35943
rfoot -7.09973 -8.72935
rtoes -15.2118
lfemur 1.81368 -5.9544 -19.2409
ltibia 7.65153
lfoot -11.8131 12.4435
ltoes 14.7565
584
root 11.1824 18.905 10.0228 -152.984 -82.318 155.34
lowerback -6.91024 -2.32619 -4.5703
upperback -0.290054 -2.71184 -1.99443
thorax 3.68906 -1.42743 0.222797
lowerneck -2.32577 -10.2402 -13.968
upperneck 13.8909 -16.106 16.6491
head 7.09968 -7.82433 6.29913
rclavicle -6.02566e-014 -1.15295e-014
rhumerus 4.1903 19.0809 -61.5524
rradius 136.224
rwrist 12.1474
rhand -34.8222 31.3899
rfingers 7.12502
rthumb -7.97318 1.56028
lclavicle -6.02566e-014 -1.15295e-014
lhumerus -41.6673 -7.99872 83.641
lradius 118.817
lwrist -17.8924
lhand -18.151 46.0543
lfingers 7.12502
lthumb 8.1246 75.8781
rfemur 1.05265 9.80604 12.6742
rtibia 7.18148
rfoot -7.08846 -8.72349
rtoes -14.6238
lfemur 1.84015 -6.31372 -19.2803
ltibia 7.85357
lfoot -11.5018 12.6327
ltoes 13.3793
585
root 11.1912 18.9044 10.0266 -154.177 -82.4476 156.429
lowerback -6.69988 -2.28954 -4.34959
upperback -0.297012 -2.69266 -1.96989
thorax 3.55397 -1.41187 0.137
lowerneck -2.11846 -10.3041 -14.0114
upperneck 13.3743 -16.142 16.7703
head 6.91987 -7.85296 6.35141
rclavicle 5.1684e-015 -2.38542e-015
rhumerus 4.42857 18.8816 -61.3322
rradius 136.178
rwrist 12.1996
rhand -35.2219 31.5112
rfingers 7.12502
rthumb -8.35897 1.69661
lclavicle 5.1684e-015 -2.38542e-015
lhumerus -41.6886 -7.99617 83.6558
lradius 118.813
lwrist -17.6848
lhand -18.7447 46.1794
lfingers 7.12502
lthumb 7.55156 76.0246
rfemur 0.975477 9.77983 12.8895
rtibia 7.541
rfoot -7.07214 -8.75727
rtoes -15.3743
lfemur 2.07831 -6.36869 -19.102
ltibia 7.59842
lfoot -11.1648 12.7124
ltoes 13.2513
